<?xml version="1.0" encoding="utf-8"?>
<!-- Generator: Adobe Illustrator 21.0.0, SVG Export Plug-In . SVG Version: 6.00 Build 0)  -->
<svg version="1.1"
	 id="svg2" inkscape:version="0.91 r13725" sodipodi:docname="Counter_Logic_Gaming_logo.svg" xmlns:cc="http://creativecommons.org/ns#" xmlns:dc="http://purl.org/dc/elements/1.1/" xmlns:inkscape="http://www.inkscape.org/namespaces/inkscape" xmlns:rdf="http://www.w3.org/1999/02/22-rdf-syntax-ns#" xmlns:sodipodi="http://sodipodi.sourceforge.net/DTD/sodipodi-0.dtd" xmlns:svg="http://www.w3.org/2000/svg"
	 xmlns="http://www.w3.org/2000/svg" xmlns:xlink="http://www.w3.org/1999/xlink" x="0px" y="0px" viewBox="0 0 500 500"
	 style="enable-background:new 0 0 500 500;" xml:space="preserve">
<style type="text/css">
	.st0{fill:#0080FF;}
</style>
<sodipodi:namedview  bordercolor="#666666" borderopacity="1.0" fit-margin-bottom="0" fit-margin-left="0" fit-margin-right="0" fit-margin-top="0" id="base" inkscape:current-layer="layer1" inkscape:cx="596.31228" inkscape:cy="340.21949" inkscape:document-units="px" inkscape:pageopacity="0.0" inkscape:pageshadow="2" inkscape:window-height="705" inkscape:window-maximized="1" inkscape:window-width="1366" inkscape:window-x="-8" inkscape:window-y="-8" inkscape:zoom="0.35" pagecolor="#ffffff" showgrid="false">
	</sodipodi:namedview>
<g id="layer1" transform="translate(221.31215,-585.07754)" inkscape:groupmode="layer" inkscape:label="Layer 1">
	<path id="path3567" inkscape:connector-curvature="0" class="st0" d="M34.7,655.4c-15.1,0.1-30.3,3.1-44.3,8.3
		c-25.3,10.6-45.2,30.8-59.8,53.6c-50.6,71.5-101.5,142.8-151.9,214.4c51.3,0.3,102.5-0.1,153.8,0.2c12.1,0.1,25.5,1.3,36.1-5.7
		c9.2-6.3,11.9-18.3,10.9-28.8c-1.6-17-1.4-34.2-2.1-51.3c-20.6,20.5-50.2,28.1-78.5,23.5c27.8-43.3,57.7-85.4,85.9-128.5
		c9.9-14.7,21.4-29.2,37.5-37.3c27.2-13.3,60.4-14.8,88.4-2.7c-5.1-15.9-16.9-29.5-32-36.7C64.9,658.1,49.8,655.3,34.7,655.4
		 M75.8,713.8c-30.3-0.2-61.3,15.6-70.6,45.9c-6.8,20.9-3.4,43.2-3.4,64.8C1.7,851,2,877.5,1.6,904c-1.2,23.5-20.4,42.6-42.9,47.3
		c23.4,5.3,49.9,4.8,70.5-8.8c17.2-11.4,27.1-32,27-52.4c0.8-41.5-0.4-83.1,1.1-124.7c1-23.9,20.6-42.9,43.3-47.5
		C92.8,715.2,84.3,713.9,75.8,713.8 M101.2,737.2C90,737.5,79.3,747.4,79.8,759c0.1,21-0.1,42.1,0.1,63.1c13-9.8,26.7-20,43.1-23.1
		c11.6-1.8,23.4-0.3,35.1,0.3c-26.3,40.2-53.5,79.7-80.3,119.5c-12.8,19.3-27.3,39.2-49.2,48.7c-26,11.5-56.2,9.4-82.5-0.4
		c11.7,32.6,49.6,52.8,83.4,46.4c40.7-3.5,76.1-29,97.3-63.2c50.6-71.1,101.3-142.1,151.9-213.2c-58.8,0-117.6,0-176.4,0
		C101.9,737.2,101.6,737.2,101.2,737.2"/>
</g>
</svg>
